<svg width="100" height="157" viewBox="0 0 100 157" fill="none" xmlns="http://www.w3.org/2000/svg">
<path d="M92.4906 101.96H60.8475V152.169H92.4906V101.96Z" fill="#B2B2B2"/>
<path d="M60.971 101.96H29.328V152.169H60.971V101.96Z" fill="#D1D1D1"/>
<path d="M44.3927 41.0734L43.0438 68.0622L36.7007 87.8534H48.1202L54.0514 70.8013L55.9049 51.4221L44.3927 41.0734Z" fill="#EBA417"/>
<path d="M44.0735 135.406L46.3697 146.104L38.6572 147.021L36.4639 136.487L44.0735 135.406Z" fill="#FCC9A7"/>
<path d="M46.8331 145.136C46.6375 144.56 46.0196 144.354 45.5974 144.724C44.7737 145.456 43.2909 146.351 41.0976 146.135C38.8219 145.909 37.9673 144.57 37.6378 143.602C37.4627 143.098 36.9788 142.84 36.5463 143.056L22.7378 149.997C21.9037 150.419 21.2447 151.201 20.9152 152.18C20.6063 153.096 21.2241 154.085 22.0891 154.064L45.9476 153.405C46.8846 153.384 47.6054 152.458 47.523 151.387L47.1317 146.135C47.1214 146.053 47.1111 145.96 47.0802 145.878L46.8331 145.136Z" fill="#1F252A"/>
<path d="M43.9396 83.6727H26.0329C26.0329 83.6727 15.1282 83.0652 14.4795 92.0134C13.8307 100.962 30.471 126.56 33.0761 140.235L48.0482 138.999L37.2671 101.816L64.0808 101.971C66.0682 101.981 68.0452 101.693 69.9193 101.044C75.1399 99.2317 83.1099 96.6368 78.7645 82.262L43.9396 83.6727Z" fill="#092330"/>
<path d="M57.7583 135.447L61.4036 148.236L53.691 149.152L50.1487 136.528L57.7583 135.447Z" fill="#FCC9A7"/>
<path d="M61.8669 147.268C61.6713 146.691 61.0535 146.485 60.6313 146.856C59.8075 147.587 58.3247 148.483 56.1315 148.267C53.8558 148.04 53.0011 146.702 52.6716 145.734C52.4965 145.229 52.0126 144.972 51.5801 145.188L37.7716 152.128C36.9376 152.55 36.2785 153.333 35.949 154.311C35.6401 155.228 36.2579 156.216 37.1229 156.195L61.3933 155.536C62.3303 155.516 63.0511 154.589 62.9687 153.518L62.1553 148.267C62.145 148.184 62.1347 148.092 62.1038 148.009L61.8669 147.268Z" fill="#1F252A"/>
<path d="M65.337 30.4674C65.7386 30.8587 83.7072 35.4409 83.7072 35.4409L79.8664 45.6454L60.2194 44.1626L65.337 30.4674Z" fill="#EBA417"/>
<path d="M57.9231 32.9284C57.9231 32.9284 46.2153 37.2017 44.3927 41.0734C45.0208 46.5412 46.9464 51.8031 50.1179 56.3029C54.0102 61.8222 58.819 71.3058 57.9334 83.6727H91.7801C91.7801 83.6727 89.9575 48.8787 79.9384 35.5233L57.9231 32.9284Z" fill="#EBA417"/>
<path d="M61.764 38.4477C65.0899 37.7681 67.2318 34.5245 66.5522 31.1985L64.5647 21.4677L52.5275 23.9287L54.5148 33.6595C55.1944 36.9855 58.438 39.1273 61.764 38.4477Z" fill="#FCC9A7"/>
<path d="M65.3885 24.8657C65.3885 24.8657 64.122 32.7534 57.9849 33.227C52.6098 33.6389 53.1246 25.8646 53.1246 25.8646L65.3885 24.8657Z" fill="#F4BE9A"/>
<path d="M58.4688 28.9022L59.5295 28.6551C64.8531 27.4194 68.1688 22.1061 66.9331 16.7928L65.5327 10.7278C64.297 5.40414 58.9837 2.08847 53.6704 3.32412L52.6098 3.57126C47.2862 4.80691 43.9705 10.1202 45.2061 15.4336L46.6066 21.4986C47.8422 26.8222 53.1555 30.1379 58.4688 28.9022Z" fill="#FCC9A7"/>
<path d="M63.5968 19.3156C63.3497 19.7378 63.1128 20.3762 63.0304 21.3441C62.9378 22.5695 62.3199 23.7331 61.2902 24.4127C58.3349 26.3691 56.0799 21.4162 51.7139 22.2915C51.7139 22.2915 50.0046 22.5489 49.6648 24.4539C49.325 26.3485 46.9463 23.0328 46.4212 20.7675C45.896 18.5021 45.6283 31.9811 56.3785 30.8381C56.3785 30.8381 61.8051 30.663 65.4606 25.1335C65.8622 24.5259 66.099 23.8154 66.1196 23.0843C66.1505 22.0031 65.996 20.3659 64.9663 19.192C64.6059 18.7595 63.8852 18.8213 63.5968 19.3156Z" fill="#22333F"/>
<path d="M63.6071 16.2573C63.6071 16.2573 58.9631 14.7231 59.7457 7.93724C59.7457 7.93724 48.2129 18.8522 39.6663 10.841C39.6663 10.841 43.4866 9.82162 45.062 7.20615C47.9349 2.43857 56.1932 -4.131 62.804 3.46829C62.804 3.46829 70.8461 2.22233 68.5395 14.6098L63.6071 16.2573Z" fill="#22333F"/>
<path d="M63.6071 16.2573C64.0499 18.152 65.9446 19.3362 67.8393 18.9037C69.7442 18.4609 70.9181 16.5662 70.4856 14.6716C70.0428 12.7769 68.1481 11.5927 66.2535 12.0252C64.3485 12.468 63.1643 14.3627 63.6071 16.2573Z" fill="#FCC9A7"/>
<path d="M57.7378 38.0667L62.7113 38.1593L59.2308 45.3673L55.4724 38.458L57.7378 38.0667Z" fill="#0C2C40"/>
<path d="M66.9743 30.7866L60.5695 38.2623L64.7398 43.0505L72.4112 32.5062C72.4112 32.5062 70.4444 29.345 66.9743 30.7866Z" fill="#CE921A"/>
<path d="M57.7378 38.0667L54.0514 42.2267L51.4565 35.7395C51.4565 35.7395 52.1362 32.8254 54.2574 33.3815L57.7378 38.0667Z" fill="#CE921A"/>
<path d="M59.0969 43.0402C59.0969 43.0402 54.2882 55.5821 55.4827 73.3756L60.2194 77.7004L65.7489 72.3768L59.7869 42.2267L59.0969 43.0402Z" fill="#0C2C40"/>
<path d="M68.0864 72.8195L57.7893 76.2073L57.1096 82.2517L70.7637 78.174L68.0864 72.8195Z" fill="#FCC9A7"/>
<path d="M59.3235 80.2026C59.3235 83.7345 56.4609 86.6074 52.9187 86.6074C49.3868 86.6074 46.5139 83.7448 46.5139 80.2026C46.5139 76.6707 49.3765 73.7977 52.9187 73.7977C56.4506 73.7977 59.3235 76.6604 59.3235 80.2026Z" fill="#FCC9A7"/>
<path d="M57.9232 83.6727H40.0267C40.0267 83.6727 29.1221 83.0652 28.4733 92.0134C27.8246 100.962 45.6901 128.208 48.2953 141.872L63.2674 140.636L51.2609 101.806L78.0747 101.96C80.062 101.971 82.0391 101.682 83.9131 101.034C89.1338 99.2214 97.1037 96.6265 92.7583 82.2517L57.9232 83.6727Z" fill="#0C2C40"/>
<path d="M3.93522 52.0296H34.8781C35.8976 52.0296 36.7728 52.7401 36.989 53.7389L42.8172 81.0675C43.1055 82.4062 42.0758 83.6727 40.7063 83.6727H9.24855C8.21883 83.6727 7.33329 82.9416 7.13764 81.9325L1.82432 54.6039C1.55659 53.2653 2.57599 52.0296 3.93522 52.0296Z" fill="#B2B2B2"/>
<path d="M2.1538 52.0296H33.0864C34.1058 52.0296 34.9811 52.7401 35.1974 53.7389L41.0255 81.0675C41.3138 82.4062 40.2944 83.6727 38.9146 83.6727H7.46713C6.43741 83.6727 5.55187 82.9416 5.35623 81.9325L0.0428976 54.6039C-0.224828 53.2653 0.794576 52.0296 2.1538 52.0296Z" fill="#D1D1D1"/>
<path d="M41.9729 81.3353H63.1129C63.7616 81.3353 64.2765 81.8604 64.2765 82.4988C64.2765 83.1476 63.7513 83.6624 63.1129 83.6624H41.561L41.9729 81.3353Z" fill="#B2B2B2"/>
<path d="M21.3065 67.1355C21.3065 68.9993 19.8031 70.5027 17.9393 70.5027C16.0755 70.5027 14.5722 68.989 14.5722 67.1355C14.5722 65.2717 16.0858 63.7683 17.9393 63.7683C19.8031 63.7683 21.3065 65.2717 21.3065 67.1355Z" fill="white"/>
<path d="M76.3241 45.1614L87.6304 63.4182L60.5695 73.077L64.2765 81.0881C64.2765 81.0881 87.4142 78.4932 98.5968 69.8745C99.6266 69.0817 100.141 67.7945 99.9663 66.5074C99.4412 62.3885 97.1964 52.39 87.6304 38.1799C85.6842 35.2865 81.8125 34.4112 78.7954 36.1617C75.6548 37.974 74.553 41.9899 76.3241 45.1614Z" fill="#EBA417"/>
<path d="M67.7672 70.5027L87.6304 63.4182L77.6936 47.365" stroke="#CE921A" stroke-width="0.7599" stroke-miterlimit="10" stroke-linecap="round" stroke-linejoin="round"/>
<path d="M54.3192 64.4582L49.428 51.5456" stroke="#CE921A" stroke-width="0.7599" stroke-miterlimit="10" stroke-linecap="round" stroke-linejoin="round"/>
<path d="M68.0864 80.5424C68.0864 80.5424 83.285 78.6374 90.9461 74.2508" stroke="#CE921A" stroke-width="0.7599" stroke-miterlimit="10" stroke-linecap="round" stroke-linejoin="round"/>
</svg>
