<svg width="200" height="147" viewBox="0 0 200 147" fill="none" xmlns="http://www.w3.org/2000/svg">
<g clip-path="url(#clip0_15_82)">
<path d="M67.5032 146.226C67.6187 136.482 71.5704 127.177 78.5014 120.328C85.4324 113.479 94.7839 109.637 104.528 109.637C114.273 109.637 123.624 113.479 130.555 120.328C137.486 127.177 141.438 136.482 141.553 146.226H67.5032Z" fill="#EBA417"/>
<path d="M62.5962 79.6079L62.0287 143.022" stroke="#61DAFB" stroke-width="1.16" stroke-miterlimit="10"/>
<path d="M62.2656 71.3506C62.2656 71.3506 68.1617 74.2402 67.7713 74.3547C67.2168 74.5578 65.2098 73.7196 65.2098 73.7196C65.2098 73.7196 64.3299 74.563 63.8743 74.4537C63.3021 74.3216 62.7486 74.1187 62.2265 73.8497" stroke="#61DAFB" stroke-width="1.56" stroke-miterlimit="10"/>
<path d="M60.4433 73.1885C60.4433 73.1885 65.7642 75.5964 65.3737 75.7136C64.8193 75.914 62.8149 75.0758 62.8149 75.0758C62.8149 75.0758 61.9323 75.9193 61.4768 75.8099C60.9045 75.6793 60.3509 75.4773 59.8289 75.2086" stroke="#61DAFB" stroke-width="1.56" stroke-miterlimit="10"/>
<path d="M76.6664 75.6511H60.7115V76.5648H76.6664V75.6511Z" fill="#61DAFB"/>
<path d="M75.6589 75.6771L81.0319 63.5333L81.6619 63.7416L76.5466 75.6511L75.6589 75.6771Z" stroke="#61DAFB" stroke-miterlimit="10"/>
<path d="M14.6013 92.5718L10.6679 65.759C10.6079 65.068 10.7299 64.3733 11.0219 63.7442C11.1042 63.5607 11.212 63.3899 11.3421 63.2366C11.7131 62.8193 12.1706 62.488 12.6827 62.2656L20.7135 58.7877" stroke="#61DAFB" stroke-width="1.16" stroke-miterlimit="10"/>
<path d="M22.2469 47.4794C23.2881 47.404 23.8087 44.4337 25.2691 43.8115C26.7295 43.1894 29.1479 46.7063 30.9467 46.675C32.7455 46.6438 33.1776 43.0046 33.1776 43.0046C22.01 37.3739 19.9378 42.7104 19.7504 43.3222C19.563 43.9339 18.4254 47.43 21.052 49.4553C21.052 49.4501 21.203 47.5523 22.2469 47.4794Z" fill="#61DAFB"/>
<path d="M20.094 48.0079C18.985 51.2905 21.3409 52.0637 21.3409 52.0637L21.4685 57.3481C21.4758 57.6713 21.3849 57.9892 21.2078 58.2597C21.0307 58.5302 20.7758 58.7406 20.4766 58.8632" stroke="#61DAFB" stroke-width="1.16" stroke-miterlimit="10"/>
<path d="M23.0408 55.1198L27.5417 56.9759L29.6789 54.5211L30.1996 53.2663L30.3271 51.8659C30.3271 51.8659 30.7618 48.9008 30.9414 46.6595" stroke="#61DAFB" stroke-width="1.16" stroke-miterlimit="10"/>
<path d="M28.5023 55.8227C28.484 56.575 28.7001 56.9238 29.1973 57.4861C29.6945 58.0484 30.4052 58.5794 31.1549 58.6523" stroke="#61DAFB" stroke-width="1.16" stroke-miterlimit="10"/>
<path d="M20.7239 58.7773C26.162 63.8717 30.6395 59.2979 31.2513 58.5898" stroke="#61DAFB" stroke-width="1.16" stroke-miterlimit="10"/>
<path d="M30.97 48.3359C31.8291 48.4374 32.4877 48.8044 32.3862 49.6661C32.3371 50.0776 32.1267 50.4528 31.8011 50.7091C31.4755 50.9654 31.0613 51.0818 30.6499 51.0328C30.2384 50.9837 29.8632 50.7733 29.6069 50.4477C29.3506 50.1221 29.2342 49.7079 29.2832 49.2965C29.3847 48.4374 30.1162 48.2344 30.97 48.3359Z" fill="white" stroke="#61DAFB" stroke-width="0.87" stroke-miterlimit="10"/>
<path d="M26.6931 47.8284C27.5495 47.9299 28.2107 48.2995 28.1092 49.1585C28.0419 49.5533 27.8255 49.9071 27.5048 50.1469C27.1841 50.3867 26.7835 50.4942 26.3858 50.4471C25.9877 50.4006 25.6227 50.2027 25.3664 49.8946C25.11 49.5864 24.982 49.1915 25.0087 48.7915C25.1103 47.9325 25.834 47.7268 26.6931 47.8284Z" stroke="#61DAFB" stroke-width="0.87" stroke-miterlimit="10"/>
<path d="M25.001 48.7889L20.4766 48.4218L20.3517 48.0314L25.217 48.1719" stroke="#61DAFB" stroke-width="0.58" stroke-miterlimit="10"/>
<path d="M27.8671 48.3125C29.2624 48.0938 29.7153 48.5312 29.7153 48.5312" stroke="#61DAFB" stroke-width="0.58" stroke-miterlimit="10"/>
<path d="M31.0664 58.6497C25.6908 63.778 21.1743 58.9829 21.1743 58.9829C25.04 61.3752 29.0411 58.9829 29.4602 57.8141L31.0664 58.6497Z" fill="#61DAFB"/>
<path d="M31.8083 60.459C31.0579 61.1895 30.1812 61.7778 29.2208 62.1953C28.25 62.594 27.1955 62.746 26.1516 62.6378C25.1199 62.5118 24.1206 62.1949 23.2048 61.7032L22.5254 61.3284L21.8824 60.8989C21.666 60.7585 21.4574 60.6064 21.2576 60.4433L20.6484 59.9643L21.268 60.4303C21.4707 60.5892 21.6818 60.737 21.9006 60.8728L22.5514 61.2868L23.2334 61.646C24.1479 62.1142 25.1422 62.4065 26.1646 62.5076C27.1827 62.5925 28.206 62.4235 29.1427 62.0157C30.0695 61.5885 30.9117 60.9977 31.6287 60.2715L31.8083 60.459Z" fill="#61DAFB"/>
<path d="M104.528 77.1532L55.8877 76.5284L55.8487 79.5429L104.489 80.1651" stroke="#61DAFB" stroke-width="1.16" stroke-miterlimit="10"/>
<path d="M14.4294 92.5536C18.6284 91.5253 54.4066 83.4424 54.4066 83.4424C55.8227 83.1665 87.5008 119.887 87.5008 119.887L84.377 120.077L50.8428 96.2501C37.8946 105.419 18.7117 108.397 14.4294 92.5536Z" fill="#61DAFB"/>
<path d="M28.7678 142.761C34.7161 142.837 39.8391 143.933 41.979 145.424L15.4942 145.083C17.673 143.649 22.8169 142.686 28.7678 142.761Z" stroke="#61DAFB" stroke-width="1.56" stroke-miterlimit="10"/>
<path d="M28.7678 142.761L27.7265 106.468" stroke="#61DAFB" stroke-width="1.56" stroke-miterlimit="10"/>
<path d="M58.7747 145.091L58.228 142.975L62.5884 143.029C64.1685 143.05 65.7252 143.55 67.17 144.263C67.2486 144.3 67.3122 144.363 67.3505 144.441C67.3888 144.519 67.3994 144.607 67.3806 144.692C67.3618 144.777 67.3148 144.853 67.2471 144.907C67.1795 144.962 67.0954 144.992 67.0086 144.992L58.7747 145.091Z" stroke="#61DAFB" stroke-miterlimit="10"/>
<path d="M84.7518 122.011L84.2052 119.895L88.5655 119.949C90.1457 119.97 91.6894 120.47 93.1446 121.186C93.2217 121.224 93.2839 121.286 93.3211 121.364C93.3583 121.441 93.3684 121.529 93.3498 121.613C93.3311 121.697 93.2849 121.772 93.2183 121.826C93.1518 121.88 93.069 121.911 92.9831 121.912L84.7518 122.011Z" stroke="#61DAFB" stroke-miterlimit="10"/>
<path d="M44.5509 96.4636L58.2124 142.938L62.0417 143.199L54.4612 83.4919L14.4294 92.5536L44.5509 96.4636Z" fill="#61DAFB"/>
<path d="M13.0258 106.146L40.3856 106.495C41.3114 106.507 42.0715 105.767 42.0833 104.841C42.095 103.916 41.3541 103.157 40.4283 103.145L13.0684 102.796C12.1426 102.785 11.3826 103.525 11.3708 104.45C11.359 105.375 12.0999 106.135 13.0258 106.146Z" stroke="#61DAFB" stroke-miterlimit="10"/>
<path d="M31.0664 58.6497L34.8957 59.4463C35.6716 59.6068 36.3788 60.0035 36.9204 60.5819C37.4619 61.1603 37.8113 61.8921 37.9206 62.6769L39.5528 74.9977" stroke="#61DAFB" stroke-width="1.16" stroke-miterlimit="10"/>
<path d="M19.5265 66.9044L24.8161 77.1037L57.2128 72.6548L57.6319 75.8672L21.5466 84.2546C20.8356 84.42 20.0897 84.3393 19.4305 84.0258C18.7714 83.7124 18.238 83.1845 17.9177 82.5287L11.0037 68.3518" stroke="#61DAFB" stroke-width="1.16" stroke-miterlimit="10"/>
<path d="M38.9566 71.1476L62.1927 71.3038L62.3749 74.045" stroke="#61DAFB" stroke-width="1.16" stroke-miterlimit="10"/>
<path d="M0 145.398H190.865" stroke="#61DAFB" stroke-width="1.56" stroke-miterlimit="10"/>
<path d="M57.2518 72.7095C57.3429 72.6913 60.4251 73.0766 60.4251 73.0766L59.9045 75.3387L57.585 75.7084" stroke="#61DAFB" stroke-width="1.16" stroke-miterlimit="10"/>
<path d="M39.8938 79.8578L40.5758 86.7693" stroke="#61DAFB" stroke-width="1.16" stroke-miterlimit="10"/>
<path d="M11.7872 70.1272L17.5142 85.0122C17.795 85.7394 18.344 86.3314 19.0482 86.666C19.7523 87.0007 20.558 87.0526 21.2992 86.811L39.9328 80.1572L39.7219 80.0219L21.281 84.3535C20.6679 84.4978 20.024 84.4308 19.4537 84.1634C18.8834 83.896 18.4202 83.4438 18.139 82.8802L11.7872 70.1272Z" fill="#61DAFB"/>
<path d="M41.0262 74.8858L39.6803 71.27L39.0452 71.2856L39.5033 75.1461L41.0262 74.8858Z" fill="#61DAFB"/>
<path d="M126.931 128.17H144.461L142.717 145.448H128.274L126.931 128.17Z" stroke="#61DAFB" stroke-miterlimit="10"/>
<path d="M117.778 145.169C118.135 145.169 128.225 141.702 128.225 141.702L128.485 145.346L117.778 145.169Z" fill="#61DAFB"/>
<path d="M127.923 106.897L135.272 113.114C135.272 113.114 135.16 125.161 135.173 125.971" stroke="#61DAFB" stroke-miterlimit="10"/>
<path d="M133.418 111.544L135.389 98.3952L146.551 91.7961" stroke="#61DAFB" stroke-miterlimit="10" stroke-linecap="round"/>
<path d="M139.984 95.6774L130.714 77.9654L121.196 72.7616" stroke="#61DAFB" stroke-miterlimit="10" stroke-linecap="round"/>
<path d="M131.549 106.993C131.289 107.311 130.607 107.178 130.607 107.178C130.607 107.178 130.321 106.535 130.57 106.22C130.616 106.142 130.679 106.075 130.753 106.022C130.827 105.97 130.912 105.935 131.001 105.918C131.09 105.902 131.182 105.904 131.27 105.926C131.358 105.948 131.44 105.989 131.511 106.046C131.582 106.102 131.64 106.173 131.681 106.254C131.722 106.335 131.745 106.424 131.748 106.515C131.752 106.605 131.736 106.696 131.702 106.78C131.667 106.864 131.615 106.939 131.549 107.001V106.993Z" fill="#61DAFB"/>
<path d="M130.555 108.412C130.295 108.102 130.568 107.454 130.568 107.454C130.568 107.454 131.258 107.306 131.515 107.616C131.585 107.676 131.64 107.75 131.678 107.834C131.716 107.918 131.735 108.009 131.734 108.101C131.733 108.192 131.712 108.283 131.673 108.366C131.633 108.449 131.576 108.522 131.505 108.581C131.435 108.64 131.352 108.682 131.263 108.706C131.174 108.729 131.081 108.733 130.991 108.717C130.901 108.701 130.815 108.665 130.739 108.613C130.664 108.56 130.601 108.492 130.555 108.412V108.412Z" fill="#61DAFB"/>
<path d="M129.48 107.564C129.847 107.728 130.401 107.303 130.401 107.303C130.401 107.303 130.36 106.6 129.993 106.434C129.916 106.384 129.83 106.351 129.74 106.338C129.65 106.324 129.558 106.33 129.471 106.356C129.384 106.381 129.303 106.425 129.234 106.484C129.165 106.544 129.109 106.617 129.071 106.7C129.034 106.783 129.014 106.873 129.014 106.964C129.014 107.055 129.034 107.145 129.072 107.228C129.11 107.31 129.165 107.384 129.234 107.443C129.303 107.502 129.384 107.546 129.472 107.571L129.48 107.564Z" fill="#61DAFB"/>
<path d="M126.772 104.901C127.074 105.161 126.905 105.851 126.905 105.851C126.905 105.851 126.247 106.111 125.945 105.832C125.869 105.783 125.805 105.718 125.757 105.641C125.709 105.564 125.677 105.478 125.665 105.389C125.654 105.299 125.661 105.208 125.688 105.121C125.714 105.035 125.759 104.955 125.819 104.887C125.879 104.82 125.953 104.766 126.036 104.729C126.119 104.693 126.208 104.674 126.299 104.676C126.389 104.677 126.478 104.698 126.56 104.736C126.642 104.775 126.714 104.831 126.772 104.901V104.901Z" fill="#61DAFB"/>
<path d="M128.126 105.973C127.801 106.212 127.168 105.905 127.168 105.905C127.168 105.905 127.061 105.208 127.384 104.968C127.448 104.903 127.526 104.852 127.611 104.819C127.697 104.787 127.789 104.773 127.88 104.78C127.971 104.786 128.06 104.812 128.141 104.856C128.221 104.9 128.291 104.961 128.345 105.035C128.399 105.109 128.437 105.193 128.456 105.283C128.474 105.373 128.473 105.465 128.452 105.555C128.431 105.644 128.391 105.727 128.335 105.8C128.279 105.872 128.208 105.931 128.126 105.973V105.973Z" fill="#61DAFB"/>
<path d="M127.223 106.999C127.41 106.642 127.007 106.064 127.007 106.064C127.007 106.064 126.304 106.064 126.116 106.421C126.061 106.494 126.023 106.579 126.003 106.668C125.984 106.758 125.985 106.851 126.005 106.941C126.025 107.03 126.064 107.114 126.12 107.187C126.176 107.26 126.248 107.319 126.329 107.362C126.41 107.404 126.5 107.429 126.592 107.433C126.683 107.437 126.775 107.422 126.86 107.387C126.945 107.353 127.022 107.3 127.084 107.233C127.147 107.166 127.194 107.086 127.223 106.999V106.999Z" fill="#61DAFB"/>
<path d="M129.316 111.255C129.547 110.927 130.245 111.015 130.245 111.015C130.245 111.015 130.568 111.64 130.336 111.971C130.296 112.052 130.238 112.123 130.167 112.179C130.097 112.236 130.015 112.277 129.927 112.299C129.839 112.321 129.748 112.324 129.659 112.307C129.57 112.291 129.486 112.256 129.412 112.204C129.337 112.152 129.275 112.084 129.23 112.006C129.184 111.928 129.156 111.841 129.147 111.751C129.137 111.661 129.148 111.57 129.177 111.485C129.206 111.399 129.254 111.321 129.316 111.255V111.255Z" fill="#61DAFB"/>
<path d="M130.224 109.781C130.5 110.076 130.266 110.739 130.266 110.739C130.266 110.739 129.589 110.927 129.313 110.633C129.243 110.576 129.185 110.505 129.144 110.424C129.104 110.344 129.081 110.255 129.077 110.165C129.074 110.075 129.09 109.985 129.124 109.901C129.159 109.817 129.211 109.742 129.277 109.681C129.343 109.619 129.421 109.572 129.507 109.544C129.593 109.515 129.684 109.505 129.774 109.515C129.863 109.524 129.95 109.553 130.028 109.599C130.106 109.645 130.173 109.707 130.224 109.781V109.781Z" fill="#61DAFB"/>
<path d="M131.349 110.568C130.971 110.424 130.445 110.888 130.445 110.888C130.445 110.888 130.526 111.588 130.904 111.731C130.983 111.776 131.07 111.803 131.161 111.811C131.251 111.818 131.342 111.806 131.427 111.776C131.512 111.745 131.59 111.696 131.655 111.633C131.72 111.569 131.77 111.493 131.802 111.408C131.835 111.323 131.848 111.233 131.843 111.142C131.837 111.052 131.811 110.964 131.768 110.884C131.725 110.804 131.666 110.734 131.593 110.68C131.521 110.625 131.437 110.587 131.349 110.568V110.568Z" fill="#61DAFB"/>
<path d="M136.977 108.209C136.576 108.162 136.324 107.506 136.324 107.506C136.324 107.506 136.719 106.923 137.12 106.97C137.212 106.965 137.304 106.98 137.389 107.015C137.475 107.049 137.552 107.101 137.615 107.169C137.678 107.236 137.725 107.316 137.754 107.403C137.783 107.49 137.792 107.583 137.782 107.674C137.771 107.766 137.741 107.854 137.693 107.932C137.645 108.011 137.58 108.078 137.504 108.129C137.427 108.18 137.34 108.213 137.249 108.227C137.158 108.241 137.065 108.235 136.977 108.209V108.209Z" fill="#61DAFB"/>
<path d="M135.241 108.113C135.368 107.73 136.063 107.618 136.063 107.618C136.063 107.618 136.55 108.126 136.422 108.508C136.407 108.598 136.372 108.682 136.32 108.757C136.269 108.831 136.202 108.894 136.124 108.94C136.046 108.986 135.959 109.015 135.869 109.025C135.779 109.034 135.688 109.024 135.602 108.996C135.516 108.967 135.438 108.92 135.372 108.858C135.306 108.796 135.254 108.721 135.219 108.637C135.185 108.553 135.169 108.463 135.173 108.373C135.176 108.282 135.2 108.194 135.241 108.113Z" fill="#61DAFB"/>
<path d="M135.397 106.749C135.449 107.147 136.11 107.392 136.11 107.392C136.11 107.392 136.685 106.986 136.631 106.587C136.632 106.497 136.614 106.407 136.577 106.325C136.541 106.242 136.487 106.168 136.42 106.108C136.352 106.048 136.273 106.003 136.186 105.977C136.1 105.95 136.009 105.942 135.919 105.954C135.83 105.966 135.744 105.997 135.667 106.044C135.59 106.092 135.525 106.156 135.475 106.231C135.425 106.307 135.392 106.392 135.378 106.481C135.364 106.571 135.37 106.662 135.394 106.749H135.397Z" fill="#61DAFB"/>
<path d="M137.529 101.022C137.131 100.977 136.875 100.319 136.875 100.319C136.875 100.319 137.274 99.7383 137.672 99.7826C137.764 99.7777 137.856 99.793 137.941 99.8273C138.026 99.8616 138.103 99.9141 138.166 99.9811C138.229 100.048 138.277 100.128 138.306 100.216C138.335 100.303 138.344 100.395 138.334 100.487C138.323 100.578 138.293 100.666 138.245 100.745C138.197 100.823 138.132 100.89 138.055 100.941C137.979 100.992 137.892 101.026 137.801 101.04C137.71 101.054 137.617 101.047 137.529 101.022V101.022Z" fill="#61DAFB"/>
<path d="M135.8 100.925C135.928 100.543 136.623 100.431 136.623 100.431C136.623 100.431 137.11 100.938 136.982 101.321C136.966 101.41 136.931 101.495 136.88 101.569C136.828 101.644 136.761 101.706 136.684 101.753C136.606 101.799 136.519 101.828 136.429 101.837C136.339 101.847 136.248 101.837 136.162 101.808C136.076 101.779 135.997 101.733 135.931 101.671C135.865 101.609 135.813 101.533 135.779 101.45C135.745 101.366 135.729 101.276 135.732 101.185C135.736 101.095 135.759 101.006 135.8 100.925V100.925Z" fill="#61DAFB"/>
<path d="M135.957 99.5614C136.009 99.9597 136.67 100.204 136.67 100.204C136.67 100.204 137.245 99.7983 137.19 99.4C137.192 99.3096 137.173 99.2201 137.137 99.1374C137.101 99.0547 137.047 98.9809 136.979 98.9208C136.912 98.8608 136.832 98.8159 136.746 98.7893C136.66 98.7627 136.569 98.755 136.479 98.7667C136.389 98.7784 136.303 98.8092 136.227 98.8571C136.15 98.9049 136.085 98.9688 136.035 99.0441C135.985 99.1195 135.952 99.2046 135.938 99.2939C135.924 99.3831 135.93 99.4744 135.954 99.5614H135.957Z" fill="#61DAFB"/>
<path d="M137.914 113.499C137.539 113.647 137.008 113.186 137.008 113.186C137.008 113.186 137.081 112.486 137.456 112.34C137.534 112.295 137.622 112.267 137.712 112.258C137.802 112.249 137.893 112.26 137.979 112.29C138.065 112.319 138.143 112.367 138.208 112.43C138.274 112.493 138.325 112.569 138.359 112.653C138.392 112.738 138.407 112.828 138.402 112.919C138.397 113.009 138.373 113.098 138.33 113.178C138.288 113.258 138.229 113.329 138.157 113.384C138.085 113.439 138.002 113.478 137.914 113.499Z" fill="#61DAFB"/>
<path d="M136.342 114.228C136.277 113.832 136.836 113.405 136.836 113.405C136.836 113.405 137.505 113.624 137.573 114.019C137.603 114.106 137.613 114.198 137.603 114.289C137.594 114.381 137.565 114.469 137.518 114.547C137.471 114.626 137.407 114.694 137.332 114.745C137.256 114.797 137.17 114.832 137.08 114.847C136.989 114.863 136.897 114.858 136.808 114.834C136.72 114.81 136.638 114.767 136.568 114.708C136.497 114.649 136.441 114.576 136.402 114.493C136.363 114.41 136.342 114.319 136.342 114.228V114.228Z" fill="#61DAFB"/>
<path d="M135.839 112.952C136.074 113.28 136.771 113.184 136.771 113.184C136.771 113.184 137.086 112.554 136.852 112.226C136.811 112.145 136.752 112.075 136.681 112.019C136.61 111.962 136.528 111.922 136.44 111.901C136.352 111.88 136.26 111.878 136.171 111.895C136.082 111.912 135.998 111.949 135.924 112.002C135.851 112.054 135.789 112.122 135.745 112.201C135.7 112.28 135.672 112.367 135.664 112.457C135.656 112.548 135.667 112.639 135.698 112.724C135.728 112.809 135.776 112.887 135.839 112.952V112.952Z" fill="#61DAFB"/>
<path d="M132.939 119.077C133.338 119.137 133.567 119.804 133.567 119.804C133.567 119.804 133.148 120.371 132.749 120.309C132.659 120.308 132.569 120.289 132.487 120.25C132.405 120.212 132.332 120.157 132.273 120.088C132.214 120.019 132.17 119.938 132.146 119.851C132.121 119.764 132.115 119.672 132.129 119.583C132.143 119.493 132.176 119.408 132.226 119.332C132.276 119.256 132.341 119.192 132.418 119.144C132.495 119.096 132.582 119.065 132.672 119.054C132.761 119.042 132.853 119.05 132.939 119.077Z" fill="#61DAFB"/>
<path d="M134.665 119.239C134.522 119.616 133.824 119.702 133.824 119.702C133.824 119.702 133.356 119.182 133.496 118.799C133.515 118.709 133.552 118.624 133.606 118.55C133.66 118.477 133.73 118.415 133.81 118.371C133.89 118.326 133.979 118.3 134.07 118.293C134.162 118.287 134.254 118.3 134.339 118.332C134.425 118.365 134.503 118.415 134.567 118.48C134.631 118.546 134.681 118.624 134.712 118.71C134.743 118.796 134.755 118.888 134.747 118.98C134.739 119.071 134.711 119.159 134.665 119.239V119.239Z" fill="#61DAFB"/>
<path d="M134.457 120.595C134.421 120.194 133.767 119.926 133.767 119.926C133.767 119.926 133.179 120.311 133.215 120.707C133.211 120.797 133.226 120.887 133.26 120.971C133.293 121.055 133.344 121.131 133.409 121.193C133.475 121.255 133.553 121.303 133.638 121.332C133.723 121.362 133.814 121.373 133.904 121.365C133.994 121.356 134.081 121.328 134.159 121.283C134.237 121.238 134.305 121.177 134.357 121.103C134.41 121.03 134.446 120.946 134.463 120.858C134.48 120.769 134.478 120.678 134.457 120.59V120.595Z" fill="#61DAFB"/>
<path d="M132.747 100.686C133.054 100.946 132.903 101.631 132.903 101.631C132.903 101.631 132.25 101.891 131.942 101.631C131.866 101.583 131.8 101.519 131.75 101.444C131.7 101.369 131.667 101.283 131.653 101.194C131.639 101.105 131.644 101.014 131.669 100.927C131.693 100.84 131.736 100.759 131.794 100.69C131.852 100.621 131.925 100.565 132.007 100.526C132.088 100.488 132.177 100.467 132.268 100.466C132.358 100.465 132.448 100.484 132.53 100.52C132.613 100.557 132.687 100.611 132.747 100.678V100.686Z" fill="#61DAFB"/>
<path d="M134.134 101.722C133.817 101.969 133.176 101.678 133.176 101.678C133.176 101.678 133.049 100.985 133.366 100.738C133.428 100.67 133.505 100.617 133.589 100.582C133.674 100.547 133.766 100.531 133.857 100.534C133.949 100.538 134.039 100.562 134.121 100.604C134.202 100.646 134.274 100.705 134.33 100.777C134.387 100.85 134.427 100.933 134.448 101.023C134.469 101.112 134.47 101.205 134.451 101.295C134.432 101.385 134.394 101.47 134.34 101.543C134.285 101.617 134.215 101.678 134.134 101.722Z" fill="#61DAFB"/>
<path d="M133.252 102.771C133.429 102.409 133.01 101.842 133.01 101.842C133.01 101.842 132.307 101.863 132.13 102.224C132.077 102.299 132.04 102.385 132.023 102.475C132.007 102.565 132.01 102.658 132.032 102.747C132.055 102.836 132.097 102.919 132.155 102.99C132.213 103.062 132.286 103.119 132.368 103.16C132.451 103.2 132.541 103.222 132.633 103.223C132.725 103.225 132.816 103.207 132.9 103.17C132.984 103.133 133.059 103.078 133.12 103.009C133.181 102.94 133.226 102.859 133.252 102.771V102.771Z" fill="#61DAFB"/>
<path d="M119.502 70.2391C119.809 70.4994 119.658 71.1867 119.658 71.1867C119.658 71.1867 119.007 71.447 118.697 71.1867C118.619 71.1396 118.551 71.076 118.5 71.0003C118.448 70.9246 118.413 70.8386 118.398 70.7483C118.383 70.6579 118.388 70.5654 118.412 70.477C118.436 70.3887 118.479 70.3066 118.538 70.2365C118.597 70.1664 118.671 70.11 118.754 70.0711C118.837 70.0322 118.927 70.0119 119.019 70.0114C119.11 70.0109 119.201 70.0303 119.284 70.0682C119.368 70.1062 119.442 70.1618 119.502 70.2313V70.2391Z" fill="#61DAFB"/>
<path d="M120.889 71.2752C120.572 71.5355 119.931 71.2335 119.931 71.2335C119.931 71.2335 119.804 70.5411 120.121 70.2937C120.184 70.228 120.259 70.1765 120.343 70.1427C120.428 70.1089 120.518 70.0936 120.608 70.0979C120.699 70.1022 120.787 70.126 120.868 70.1676C120.948 70.2092 121.019 70.2676 121.075 70.3389C121.13 70.4103 121.17 70.4928 121.191 70.5809C121.212 70.6691 121.214 70.7607 121.196 70.8495C121.179 70.9384 121.142 71.0224 121.089 71.0959C121.036 71.1693 120.968 71.2305 120.889 71.2752Z" fill="#61DAFB"/>
<path d="M120.007 72.3268C120.184 71.965 119.767 71.3976 119.767 71.3976C119.767 71.3976 119.064 71.4184 118.887 71.7802C118.836 71.8548 118.801 71.9397 118.785 72.029C118.77 72.1184 118.773 72.21 118.796 72.2978C118.819 72.3856 118.861 72.4673 118.918 72.5375C118.976 72.6076 119.048 72.6646 119.129 72.7044C119.211 72.7442 119.3 72.7659 119.391 72.7681C119.481 72.7703 119.571 72.7528 119.655 72.717C119.738 72.6812 119.813 72.6277 119.873 72.5604C119.934 72.4931 119.98 72.4134 120.007 72.3268V72.3268Z" fill="#61DAFB"/>
<path d="M121.483 75.8047C121.696 75.4611 122.399 75.5132 122.399 75.5132C122.399 75.5132 122.756 76.1197 122.542 76.4634C122.506 76.5459 122.452 76.6196 122.385 76.6796C122.317 76.7395 122.238 76.7843 122.152 76.8109C122.066 76.8375 121.975 76.8453 121.885 76.8338C121.796 76.8222 121.71 76.7916 121.633 76.744C121.557 76.6964 121.491 76.6329 121.441 76.5578C121.391 76.4827 121.358 76.3978 121.344 76.3087C121.33 76.2197 121.335 76.1286 121.359 76.0416C121.383 75.9547 121.425 75.8739 121.483 75.8047V75.8047Z" fill="#61DAFB"/>
<path d="M122.311 74.2818C122.602 74.5604 122.404 75.2372 122.404 75.2372C122.404 75.2372 121.738 75.461 121.446 75.1825C121.371 75.1306 121.307 75.0628 121.26 74.9839C121.213 74.905 121.184 74.8168 121.175 74.7255C121.166 74.6342 121.176 74.542 121.206 74.4552C121.236 74.3684 121.284 74.2892 121.348 74.223C121.411 74.1567 121.488 74.1051 121.574 74.0717C121.659 74.0383 121.751 74.0239 121.843 74.0295C121.934 74.0351 122.024 74.0606 122.104 74.1042C122.185 74.1477 122.256 74.2083 122.311 74.2818V74.2818Z" fill="#61DAFB"/>
<path d="M123.477 75.0055C123.092 74.8832 122.592 75.3751 122.592 75.3751C122.592 75.3751 122.711 76.0702 123.094 76.1926C123.175 76.2322 123.264 76.2539 123.354 76.2562C123.444 76.2585 123.534 76.2415 123.617 76.2061C123.7 76.1708 123.775 76.118 123.836 76.0513C123.897 75.9846 123.942 75.9057 123.97 75.8198C123.998 75.7338 124.007 75.643 123.996 75.5533C123.986 75.4636 123.956 75.3772 123.909 75.3C123.863 75.2228 123.8 75.1565 123.725 75.1057C123.65 75.0549 123.566 75.0207 123.477 75.0055V75.0055Z" fill="#61DAFB"/>
<path d="M128.019 73.8601C127.832 74.2168 127.129 74.222 127.129 74.222C127.129 74.222 126.726 73.644 126.91 73.2874C126.939 73.2 126.986 73.1199 127.048 73.0524C127.11 72.985 127.186 72.932 127.271 72.897C127.356 72.862 127.448 72.8459 127.54 72.8498C127.631 72.8538 127.721 72.8777 127.803 72.9198C127.884 72.9619 127.956 73.0213 128.012 73.0938C128.068 73.1663 128.108 73.2503 128.129 73.3398C128.149 73.4292 128.15 73.5221 128.131 73.612C128.113 73.7018 128.074 73.7866 128.019 73.8601V73.8601Z" fill="#61DAFB"/>
<path d="M127.314 75.4428C127.002 75.1825 127.145 74.4979 127.145 74.4979C127.145 74.4979 127.79 74.2219 128.103 74.4771C128.185 74.5208 128.257 74.5823 128.313 74.657C128.368 74.7317 128.407 74.8179 128.426 74.9093C128.444 75.0007 128.443 75.0951 128.42 75.1857C128.398 75.2763 128.356 75.3609 128.298 75.4334C128.239 75.5059 128.165 75.5646 128.081 75.6052C127.997 75.6458 127.905 75.6673 127.812 75.6682C127.719 75.6691 127.626 75.6494 127.542 75.6104C127.457 75.5715 127.382 75.5142 127.322 75.4428H127.314Z" fill="#61DAFB"/>
<path d="M126.096 74.8129C126.486 74.9066 126.947 74.373 126.947 74.373C126.947 74.373 126.772 73.6909 126.382 73.592C126.298 73.5586 126.208 73.5436 126.117 73.5482C126.027 73.5528 125.938 73.5769 125.858 73.6187C125.778 73.6605 125.708 73.7191 125.652 73.7905C125.596 73.862 125.557 73.9446 125.536 74.0327C125.515 74.1208 125.514 74.2123 125.531 74.301C125.549 74.3898 125.586 74.4737 125.639 74.547C125.692 74.6203 125.76 74.6813 125.839 74.7258C125.918 74.7703 126.005 74.7974 126.096 74.8051V74.8129Z" fill="#61DAFB"/>
<path d="M133.171 77.2885C132.856 77.5489 132.21 77.2573 132.21 77.2573C132.21 77.2573 132.078 76.5675 132.393 76.315C132.455 76.2496 132.53 76.1982 132.613 76.1643C132.696 76.1304 132.786 76.1147 132.876 76.1184C132.966 76.1221 133.054 76.145 133.134 76.1856C133.215 76.2261 133.286 76.2835 133.342 76.3537C133.398 76.4239 133.439 76.5053 133.461 76.5926C133.483 76.6798 133.486 76.7708 133.47 76.8594C133.455 76.9479 133.42 77.0321 133.369 77.1061C133.317 77.1802 133.251 77.2424 133.174 77.2885H133.171Z" fill="#61DAFB"/>
<path d="M131.885 78.4495C131.703 78.0877 132.112 77.5176 132.112 77.5176C132.112 77.5176 132.817 77.5176 132.999 77.8873C133.054 77.9614 133.091 78.0464 133.109 78.1365C133.127 78.2265 133.126 78.3194 133.104 78.4087C133.083 78.498 133.042 78.5816 132.985 78.6536C132.928 78.7256 132.856 78.7844 132.774 78.8258C132.692 78.8672 132.602 78.8902 132.51 78.8933C132.418 78.8963 132.327 78.8794 132.242 78.8436C132.158 78.8078 132.082 78.754 132.02 78.686C131.959 78.6179 131.912 78.5372 131.885 78.4495V78.4495Z" fill="#61DAFB"/>
<path d="M131.026 77.377C131.346 77.6217 131.984 77.3223 131.984 77.3223C131.984 77.3223 132.101 76.6299 131.781 76.3852C131.718 76.3204 131.641 76.2701 131.557 76.2376C131.472 76.205 131.382 76.1911 131.292 76.1966C131.201 76.2022 131.113 76.2271 131.033 76.2698C130.954 76.3124 130.884 76.3718 130.829 76.4439C130.774 76.5159 130.736 76.5988 130.716 76.6871C130.696 76.7754 130.695 76.867 130.714 76.9555C130.733 77.0441 130.77 77.1275 130.824 77.2003C130.878 77.273 130.947 77.3333 131.026 77.377V77.377Z" fill="#61DAFB"/>
<path d="M137.237 85.1631C136.922 85.4234 136.277 85.1319 136.277 85.1319C136.277 85.1319 136.141 84.442 136.456 84.1895C136.518 84.1211 136.593 84.0669 136.677 84.0306C136.762 83.9943 136.853 83.9767 136.945 83.9792C137.037 83.9817 137.127 84.0042 137.209 84.045C137.291 84.0859 137.363 84.1442 137.421 84.2158C137.478 84.2874 137.52 84.3707 137.542 84.4598C137.564 84.549 137.566 84.6418 137.548 84.732C137.531 84.8221 137.494 84.9074 137.44 84.9819C137.387 85.0563 137.317 85.1182 137.237 85.1631Z" fill="#61DAFB"/>
<path d="M135.936 86.3242C135.753 85.9649 136.162 85.3922 136.162 85.3922C136.162 85.3922 136.868 85.3923 137.047 85.7619C137.1 85.8358 137.136 85.9202 137.153 86.0093C137.17 86.0984 137.167 86.1901 137.146 86.2782C137.124 86.3663 137.083 86.4486 137.027 86.5196C136.971 86.5906 136.899 86.6485 136.818 86.6895C136.737 86.7304 136.649 86.7534 136.558 86.7568C136.467 86.7603 136.377 86.7441 136.293 86.7094C136.209 86.6748 136.134 86.6224 136.072 86.5559C136.011 86.4894 135.964 86.4103 135.936 86.3242Z" fill="#61DAFB"/>
<path d="M135.082 85.2517C135.402 85.4964 136.04 85.1969 136.04 85.1969C136.04 85.1969 136.157 84.5045 135.837 84.2598C135.774 84.1951 135.697 84.1447 135.613 84.1122C135.528 84.0796 135.438 84.0657 135.347 84.0713C135.257 84.0768 135.169 84.1017 135.089 84.1444C135.009 84.1871 134.94 84.2465 134.885 84.3185C134.83 84.3905 134.791 84.4735 134.771 84.5618C134.752 84.6501 134.751 84.7416 134.77 84.8302C134.788 84.9187 134.826 85.0022 134.88 85.0749C134.934 85.1476 135.003 85.2079 135.082 85.2517V85.2517Z" fill="#61DAFB"/>
<path d="M127.291 79.1706C127.551 78.8634 128.235 79.0119 128.235 79.0119C128.235 79.0119 128.496 79.6626 128.235 79.9724C128.189 80.051 128.125 80.1185 128.05 80.1702C127.974 80.2219 127.888 80.2566 127.798 80.2719C127.708 80.2872 127.615 80.2827 127.527 80.2588C127.439 80.2349 127.356 80.1921 127.286 80.1333C127.216 80.0746 127.159 80.0013 127.12 79.9185C127.081 79.8358 127.061 79.7455 127.06 79.654C127.059 79.5625 127.078 79.4719 127.116 79.3884C127.153 79.305 127.208 79.2306 127.277 79.1706H127.291Z" fill="#61DAFB"/>
<path d="M128.321 77.7779C128.582 78.0955 128.282 78.7385 128.282 78.7385C128.282 78.7385 127.59 78.8687 127.34 78.5511C127.275 78.4886 127.224 78.4129 127.191 78.3292C127.158 78.2454 127.143 78.1556 127.147 78.0657C127.151 77.9757 127.175 77.8876 127.216 77.8074C127.257 77.7273 127.315 77.6567 127.385 77.6006C127.456 77.5446 127.537 77.5042 127.625 77.4822C127.712 77.4602 127.803 77.4571 127.892 77.4732C127.98 77.4892 128.064 77.524 128.139 77.5752C128.213 77.6264 128.275 77.6929 128.321 77.7701V77.7779Z" fill="#61DAFB"/>
<path d="M129.376 78.6578C129.011 78.4834 128.446 78.9025 128.446 78.9025C128.446 78.9025 128.47 79.6054 128.832 79.7824C128.907 79.8348 128.992 79.8702 129.082 79.8863C129.172 79.9024 129.265 79.8988 129.353 79.8757C129.442 79.8525 129.524 79.8105 129.595 79.7524C129.666 79.6943 129.723 79.6215 129.763 79.5391C129.803 79.4568 129.824 79.3667 129.826 79.2752C129.828 79.1837 129.809 79.0929 129.773 79.0091C129.736 78.9253 129.681 78.8505 129.613 78.7899C129.544 78.7293 129.463 78.6842 129.376 78.6578V78.6578Z" fill="#61DAFB"/>
<path d="M134.246 91.1713C134.507 90.8615 135.194 91.0099 135.194 91.0099C135.194 91.0099 135.454 91.6607 135.194 91.9704C135.147 92.0499 135.084 92.1182 135.009 92.1708C134.933 92.2233 134.847 92.2588 134.757 92.2747C134.666 92.2906 134.573 92.2865 134.484 92.2628C134.395 92.2391 134.313 92.1962 134.242 92.1373C134.172 92.0784 134.115 92.0048 134.075 91.9216C134.036 91.8385 134.015 91.7477 134.015 91.6558C134.014 91.5638 134.034 91.4728 134.072 91.3892C134.11 91.3055 134.166 91.2311 134.236 91.1713H134.246Z" fill="#61DAFB"/>
<path d="M135.277 89.7838C135.537 90.0988 135.238 90.7417 135.238 90.7417C135.238 90.7417 134.546 90.8719 134.298 90.5543C134.236 90.4916 134.187 90.4164 134.155 90.3336C134.124 90.2508 134.11 90.1622 134.115 90.0737C134.12 89.9852 134.144 89.8988 134.184 89.8201C134.225 89.7413 134.282 89.6721 134.351 89.6168C134.42 89.5615 134.501 89.5215 134.586 89.4993C134.672 89.4771 134.762 89.4733 134.849 89.4881C134.937 89.5028 135.02 89.5359 135.093 89.585C135.167 89.6342 135.23 89.6984 135.277 89.7734V89.7838Z" fill="#61DAFB"/>
<path d="M136.331 90.6559C135.969 90.4815 135.402 90.9006 135.402 90.9006C135.402 90.9006 135.425 91.6034 135.787 91.7804C135.862 91.8328 135.948 91.8683 136.038 91.8844C136.128 91.9005 136.221 91.8969 136.309 91.8737C136.398 91.8506 136.48 91.8085 136.551 91.7504C136.622 91.6923 136.679 91.6195 136.719 91.5372C136.758 91.4548 136.78 91.3647 136.782 91.2732C136.783 91.1817 136.765 91.091 136.728 91.0072C136.692 90.9234 136.637 90.8486 136.568 90.7879C136.5 90.7273 136.419 90.6823 136.331 90.6559V90.6559Z" fill="#61DAFB"/>
<path d="M130.675 82.914C131.068 82.8229 131.523 83.3565 131.523 83.3565C131.523 83.3565 131.346 84.0386 130.953 84.1375C130.868 84.1728 130.776 84.1892 130.684 84.1854C130.593 84.1816 130.502 84.1578 130.421 84.1156C130.339 84.0735 130.267 84.0139 130.211 83.9412C130.154 83.8685 130.114 83.7844 130.094 83.6946C130.073 83.6049 130.072 83.5117 130.092 83.4217C130.111 83.3316 130.149 83.2469 130.205 83.1733C130.26 83.0997 130.331 83.039 130.412 82.9956C130.493 82.9522 130.583 82.927 130.675 82.9218V82.914Z" fill="#61DAFB"/>
<path d="M132.335 82.4272C132.335 82.8307 131.726 83.1666 131.726 83.1666C131.726 83.1666 131.096 82.8516 131.088 82.4481C131.074 82.3589 131.079 82.2677 131.103 82.1807C131.127 82.0936 131.17 82.0127 131.228 81.9435C131.286 81.8742 131.358 81.8183 131.439 81.7794C131.521 81.7405 131.61 81.7196 131.7 81.7181C131.79 81.7166 131.88 81.7345 131.963 81.7706C132.045 81.8067 132.119 81.8603 132.18 81.9275C132.24 81.9948 132.285 82.0742 132.312 82.1604C132.339 82.2467 132.347 82.3377 132.335 82.4272V82.4272Z" fill="#61DAFB"/>
<path d="M132.645 83.7652C132.46 83.406 131.758 83.3982 131.758 83.3982C131.758 83.3982 131.349 83.9709 131.534 84.3302C131.563 84.4158 131.61 84.4941 131.672 84.56C131.733 84.6258 131.809 84.6776 131.893 84.7117C131.976 84.7459 132.066 84.7616 132.157 84.7578C132.247 84.7541 132.335 84.7309 132.416 84.69C132.496 84.6491 132.567 84.5912 132.624 84.5205C132.68 84.4498 132.72 84.3678 132.742 84.2801C132.764 84.1924 132.766 84.101 132.75 84.0121C132.733 83.9233 132.697 83.8391 132.645 83.7652V83.7652Z" fill="#61DAFB"/>
<path d="M148.668 91.4941C148.293 91.6451 147.757 91.1869 147.757 91.1869C147.757 91.1869 147.827 90.4867 148.199 90.3357C148.278 90.2886 148.365 90.259 148.456 90.249C148.547 90.2391 148.639 90.2489 148.726 90.2779C148.812 90.3069 148.892 90.3543 148.958 90.417C149.025 90.4796 149.077 90.5558 149.112 90.6406C149.146 90.7254 149.161 90.8166 149.157 90.9079C149.153 90.9992 149.129 91.0886 149.086 91.1697C149.044 91.2508 148.985 91.3218 148.913 91.3778C148.84 91.4338 148.757 91.4735 148.668 91.4941Z" fill="#61DAFB"/>
<path d="M147.103 92.236C147.03 91.8377 147.588 91.4082 147.588 91.4082C147.588 91.4082 148.259 91.6191 148.329 92.0174C148.359 92.1033 148.369 92.1946 148.36 92.2849C148.351 92.3752 148.322 92.4624 148.276 92.5406C148.23 92.6188 148.167 92.6861 148.093 92.7379C148.018 92.7897 147.933 92.8247 147.844 92.8407C147.754 92.8566 147.663 92.8531 147.575 92.8302C147.487 92.8074 147.405 92.7658 147.335 92.7084C147.264 92.651 147.207 92.5791 147.167 92.4975C147.127 92.416 147.106 92.3268 147.103 92.236V92.236Z" fill="#61DAFB"/>
<path d="M146.588 90.963C146.825 91.2884 147.52 91.1843 147.52 91.1843C147.52 91.1843 147.832 90.5543 147.595 90.2289C147.553 90.1488 147.494 90.0787 147.423 90.0234C147.351 89.9681 147.269 89.9288 147.18 89.9083C147.092 89.8878 147.001 89.8865 146.912 89.9045C146.823 89.9226 146.74 89.9594 146.667 90.0127C146.593 90.066 146.533 90.1344 146.488 90.2133C146.444 90.2922 146.417 90.3797 146.41 90.4699C146.402 90.56 146.414 90.6507 146.445 90.7358C146.476 90.8209 146.524 90.8984 146.588 90.963Z" fill="#61DAFB"/>
<path d="M145.187 96.0887C144.8 95.982 144.651 95.2921 144.651 95.2921C144.651 95.2921 145.133 94.7715 145.521 94.8887C145.611 94.8995 145.697 94.9296 145.775 94.977C145.852 95.0245 145.919 95.088 145.969 95.1634C146.02 95.2388 146.053 95.3243 146.068 95.4139C146.082 95.5035 146.077 95.5953 146.053 95.6827C146.028 95.7702 145.986 95.8513 145.927 95.9207C145.868 95.99 145.795 96.0459 145.713 96.0845C145.631 96.123 145.542 96.1434 145.451 96.1441C145.36 96.1449 145.27 96.126 145.187 96.0887V96.0887Z" fill="#61DAFB"/>
<path d="M143.485 95.7243C143.672 95.3651 144.375 95.365 144.375 95.365C144.375 95.365 144.779 95.9403 144.594 96.2996C144.565 96.3864 144.518 96.466 144.455 96.5328C144.393 96.5996 144.316 96.652 144.232 96.6865C144.147 96.721 144.056 96.7366 143.964 96.7324C143.873 96.7282 143.783 96.7042 143.702 96.662C143.621 96.6199 143.55 96.5606 143.494 96.4883C143.438 96.416 143.398 96.3324 143.377 96.2433C143.357 96.1541 143.355 96.0616 143.374 95.972C143.393 95.8824 143.43 95.7979 143.485 95.7243V95.7243Z" fill="#61DAFB"/>
<path d="M143.862 94.4019C143.862 94.8027 144.466 95.1464 144.466 95.1464C144.466 95.1464 145.099 94.8366 145.109 94.4331C145.127 94.3428 145.125 94.2497 145.103 94.1603C145.081 94.071 145.039 93.9875 144.982 93.9157C144.924 93.844 144.852 93.7856 144.769 93.7448C144.687 93.7039 144.596 93.6816 144.504 93.6793C144.412 93.677 144.321 93.6948 144.236 93.7314C144.152 93.7681 144.077 93.8227 144.016 93.8915C143.954 93.9603 143.909 94.0416 143.883 94.1298C143.856 94.2179 143.849 94.3108 143.862 94.4019V94.4019Z" fill="#61DAFB"/>
<path d="M142.444 91.6321C142.42 92.033 141.78 92.3245 141.78 92.3245C141.78 92.3245 141.176 91.9601 141.199 91.5592C141.191 91.4691 141.203 91.3783 141.233 91.293C141.264 91.2077 141.312 91.1299 141.375 91.065C141.438 91.0001 141.514 90.9495 141.599 90.9167C141.683 90.8839 141.773 90.8697 141.864 90.875C141.954 90.8803 142.042 90.9049 142.122 90.9474C142.202 90.9898 142.272 91.049 142.327 91.1208C142.382 91.1926 142.421 91.2755 142.441 91.3637C142.461 91.4519 142.462 91.5435 142.444 91.6321V91.6321Z" fill="#61DAFB"/>
<path d="M142.444 93.3632C142.056 93.2591 141.905 92.5692 141.905 92.5692C141.905 92.5692 142.384 92.0485 142.774 92.1605C142.866 92.1697 142.954 92.1987 143.033 92.2456C143.113 92.2926 143.181 92.3562 143.233 92.4321C143.285 92.508 143.32 92.5943 143.335 92.6851C143.35 92.7758 143.345 92.8688 143.321 92.9576C143.297 93.0463 143.253 93.1287 143.194 93.1989C143.134 93.2691 143.06 93.3255 142.976 93.3641C142.893 93.4028 142.802 93.4226 142.71 93.4225C142.618 93.4223 142.527 93.4021 142.444 93.3632V93.3632Z" fill="#61DAFB"/>
<path d="M141.064 93.2851C141.46 93.2096 141.665 92.5354 141.665 92.5354C141.665 92.5354 141.228 91.9835 140.832 92.059C140.74 92.0609 140.65 92.0828 140.567 92.1232C140.485 92.1636 140.412 92.2215 140.354 92.2929C140.296 92.3643 140.255 92.4474 140.232 92.5365C140.21 92.6256 140.207 92.7185 140.224 92.8089C140.241 92.8992 140.278 92.9847 140.331 93.0594C140.384 93.1342 140.454 93.1964 140.534 93.2417C140.614 93.287 140.702 93.3144 140.794 93.3219C140.886 93.3294 140.978 93.3168 141.064 93.2851V93.2851Z" fill="#61DAFB"/>
<path d="M125.523 125.968H145.828C145.898 125.968 145.967 125.984 146.031 126.014C146.094 126.044 146.15 126.088 146.194 126.143C146.238 126.198 146.269 126.262 146.285 126.33C146.301 126.398 146.301 126.47 146.286 126.538L146.026 127.798C146.003 127.903 145.945 127.997 145.862 128.064C145.778 128.131 145.675 128.168 145.567 128.168H126.025C125.93 128.168 125.837 128.139 125.758 128.085C125.68 128.032 125.619 127.955 125.585 127.866L125.109 126.603C125.083 126.534 125.074 126.46 125.082 126.387C125.09 126.313 125.115 126.243 125.156 126.181C125.196 126.119 125.25 126.068 125.314 126.031C125.378 125.994 125.449 125.972 125.523 125.968V125.968Z" stroke="#61DAFB" stroke-miterlimit="10"/>
<path d="M127.137 130.154C127.361 130.154 144.461 128.17 144.461 128.17H126.931L127.137 130.154Z" fill="#61DAFB"/>
<path d="M0.637757 145.424V21.3201C0.637415 18.5382 1.18508 15.7834 2.24943 13.2132C3.31378 10.643 4.87393 8.30759 6.84091 6.34037C8.80788 4.37316 11.1431 2.81267 13.7132 1.748C16.2833 0.683339 19.0379 0.135376 21.8198 0.135376H44.871" stroke="#61DAFB" stroke-miterlimit="10"/>
<path d="M67.386 6.33614H18.9017L35.4762 1.23394C40.9868 -0.462986 46.8884 -0.406623 52.3656 1.3953L67.386 6.33614Z" fill="#61DAFB"/>
<path d="M199.911 34.7447C151.802 79.7954 33.4327 -27.5157 8.96014 50.421" stroke="#61DAFB" stroke-miterlimit="10"/>
</g>
<defs>
<clipPath id="clip0_15_82">
<rect width="200" height="146.223" fill="white"/>
</clipPath>
</defs>
</svg>
