<svg width="43" height="10" viewBox="0 0 43 10" fill="none" xmlns="http://www.w3.org/2000/svg">
<path d="M3.57422 5.2793H1.82227L1.81641 4.03711H3.30469C3.53906 4.03711 3.73047 3.99805 3.87891 3.91992C4.03125 3.83789 4.14258 3.71875 4.21289 3.5625C4.28711 3.40234 4.32422 3.20703 4.32422 2.97656C4.32422 2.71875 4.28906 2.51172 4.21875 2.35547C4.15234 2.19531 4.04492 2.07812 3.89648 2.00391C3.75195 1.92969 3.56055 1.89258 3.32227 1.89258H2.4082V9H0.691406V0.46875H3.32227C3.74805 0.46875 4.12891 0.515625 4.46484 0.609375C4.80078 0.703125 5.08398 0.845703 5.31445 1.03711C5.54883 1.22852 5.72852 1.4707 5.85352 1.76367C5.97852 2.05664 6.04102 2.40234 6.04102 2.80078C6.04102 3.15234 5.9707 3.47656 5.83008 3.77344C5.68945 4.07031 5.46875 4.31445 5.16797 4.50586C4.87109 4.69336 4.48242 4.79688 4.00195 4.81641L3.57422 5.2793ZM3.50977 9H1.33594L2.02148 7.58203H3.50977C3.74023 7.58203 3.92383 7.5332 4.06055 7.43555C4.19727 7.33789 4.29688 7.20703 4.35938 7.04297C4.42578 6.875 4.45898 6.68359 4.45898 6.46875C4.45898 6.22656 4.42969 6.01562 4.37109 5.83594C4.31641 5.65625 4.22461 5.51953 4.0957 5.42578C3.9668 5.32812 3.79297 5.2793 3.57422 5.2793H2.09766L2.10938 4.03711H3.90234L4.30664 4.5293C4.76367 4.51367 5.12891 4.60156 5.40234 4.79297C5.67578 4.98047 5.87109 5.22656 5.98828 5.53125C6.10938 5.83203 6.16992 6.15234 6.16992 6.49219C6.16992 7.03906 6.06641 7.5 5.85938 7.875C5.65625 8.24609 5.35742 8.52734 4.96289 8.71875C4.56836 8.90625 4.08398 9 3.50977 9Z" fill="#EBA417"/>
<path d="M7.48242 8.16211C7.48242 7.9043 7.56836 7.68945 7.74023 7.51758C7.91211 7.3418 8.14453 7.25391 8.4375 7.25391C8.73047 7.25391 8.96289 7.3418 9.13477 7.51758C9.30664 7.68945 9.39258 7.9043 9.39258 8.16211C9.39258 8.41992 9.30664 8.63477 9.13477 8.80664C8.96289 8.97852 8.73047 9.06445 8.4375 9.06445C8.14453 9.06445 7.91211 8.97852 7.74023 8.80664C7.56836 8.63477 7.48242 8.41992 7.48242 8.16211Z" fill="#61DAFB"/>
<path d="M14.0098 1.99219L12.1758 9H10.3652L13.0312 0.46875H14.1621L14.0098 1.99219ZM15.457 9L13.6113 1.99219L13.4414 0.46875H14.5898L17.2793 9H15.457ZM15.5215 5.81836V7.24219H11.6719V5.81836H15.5215ZM19.6523 4.07227V9H18.0117V2.66016H19.5586L19.6523 4.07227ZM21.1465 2.61328L21.123 4.24805C21.0488 4.23242 20.959 4.2207 20.8535 4.21289C20.752 4.20508 20.6621 4.20117 20.584 4.20117C20.4004 4.20117 20.2441 4.23047 20.1152 4.28906C19.9863 4.34375 19.8789 4.42773 19.793 4.54102C19.7109 4.65039 19.6484 4.78711 19.6055 4.95117C19.5625 5.11523 19.5371 5.30078 19.5293 5.50781L19.2188 5.39062C19.2188 4.97656 19.25 4.59766 19.3125 4.25391C19.3789 3.90625 19.4766 3.60547 19.6055 3.35156C19.7344 3.09375 19.8887 2.89453 20.0684 2.75391C20.252 2.61328 20.459 2.54297 20.6895 2.54297C20.7676 2.54297 20.8496 2.55078 20.9355 2.56641C21.0254 2.57812 21.0957 2.59375 21.1465 2.61328ZM25.043 2.66016V3.89648H21.8086V2.66016H25.043ZM22.5527 1.0957H24.1875V7.06641C24.1875 7.24219 24.2051 7.37695 24.2402 7.4707C24.2754 7.56445 24.3281 7.63086 24.3984 7.66992C24.4727 7.70508 24.5684 7.72266 24.6855 7.72266C24.7715 7.72266 24.8496 7.71875 24.9199 7.71094C24.9902 7.69922 25.043 7.6875 25.0781 7.67578V8.95898C24.9492 9.00977 24.8125 9.04883 24.668 9.07617C24.5273 9.10352 24.3594 9.11719 24.1641 9.11719C23.8398 9.11719 23.5566 9.05469 23.3145 8.92969C23.0723 8.80469 22.8848 8.60547 22.752 8.33203C22.6191 8.05469 22.5527 7.69141 22.5527 7.24219V1.0957ZM27.6797 2.66016V9H26.0332V2.66016H27.6797ZM25.957 1.01953C25.957 0.765625 26.0371 0.556641 26.1973 0.392578C26.3613 0.224609 26.582 0.140625 26.8594 0.140625C27.1328 0.140625 27.3496 0.222656 27.5098 0.386719C27.6699 0.550781 27.75 0.759766 27.75 1.01367C27.75 1.26758 27.6699 1.47852 27.5098 1.64648C27.3496 1.81055 27.1328 1.89258 26.8594 1.89258C26.582 1.89258 26.3613 1.81055 26.1973 1.64648C26.0371 1.47852 25.957 1.26953 25.957 1.01953ZM31.2715 7.75195C31.4238 7.75195 31.5547 7.7207 31.6641 7.6582C31.7773 7.5957 31.8633 7.49414 31.9219 7.35352C31.9805 7.21289 32.0117 7.03125 32.0156 6.80859H33.5566C33.5566 7.28516 33.4551 7.69727 33.252 8.04492C33.0527 8.38867 32.7832 8.6543 32.4434 8.8418C32.1074 9.02539 31.7266 9.11719 31.3008 9.11719C30.875 9.11719 30.5039 9.04883 30.1875 8.91211C29.8711 8.77539 29.6094 8.57617 29.4023 8.31445C29.1992 8.05273 29.0449 7.73438 28.9395 7.35938C28.8379 6.98047 28.7871 6.54688 28.7871 6.05859V5.5957C28.7871 5.11523 28.8379 4.68555 28.9395 4.30664C29.0449 3.92773 29.1992 3.60742 29.4023 3.3457C29.6094 3.08398 29.8691 2.88477 30.1816 2.74805C30.498 2.61133 30.8691 2.54297 31.2949 2.54297C31.752 2.54297 32.1484 2.63867 32.4844 2.83008C32.8203 3.01758 33.082 3.29492 33.2695 3.66211C33.4609 4.0293 33.5566 4.48242 33.5566 5.02148H32.0156C32.0117 4.7793 31.9824 4.57812 31.9277 4.41797C31.877 4.25391 31.7969 4.12891 31.6875 4.04297C31.582 3.95312 31.4414 3.9082 31.2656 3.9082C31.082 3.9082 30.9336 3.94727 30.8203 4.02539C30.7109 4.09961 30.627 4.20898 30.5684 4.35352C30.5137 4.49414 30.4766 4.66992 30.457 4.88086C30.4375 5.0918 30.4277 5.33008 30.4277 5.5957V6.05859C30.4277 6.34375 30.4355 6.5918 30.4512 6.80273C30.4707 7.00977 30.5078 7.18555 30.5625 7.33008C30.6211 7.4707 30.7051 7.57617 30.8145 7.64648C30.9277 7.7168 31.0801 7.75195 31.2715 7.75195ZM36.2227 0V9H34.5762V0H36.2227ZM40.0781 9.11719C39.6445 9.11719 39.2598 9.05078 38.9238 8.91797C38.5918 8.78516 38.3105 8.59375 38.0801 8.34375C37.8496 8.08984 37.6738 7.7832 37.5527 7.42383C37.4316 7.06445 37.3711 6.6543 37.3711 6.19336V5.67188C37.3711 5.15625 37.4297 4.70508 37.5469 4.31836C37.6641 3.92773 37.8301 3.59961 38.0449 3.33398C38.2598 3.06836 38.5234 2.87109 38.8359 2.74219C39.1523 2.60938 39.5098 2.54297 39.9082 2.54297C40.3066 2.54297 40.6562 2.60938 40.957 2.74219C41.2617 2.87109 41.5137 3.06641 41.7129 3.32812C41.9121 3.58594 42.0625 3.90625 42.1641 4.28906C42.2656 4.67188 42.3164 5.11719 42.3164 5.625V6.375H38.0684V5.2207H40.7051V5.07422C40.7051 4.81641 40.6777 4.60156 40.623 4.42969C40.5684 4.25391 40.4824 4.12305 40.3652 4.03711C40.248 3.95117 40.0918 3.9082 39.8965 3.9082C39.7324 3.9082 39.5938 3.94141 39.4805 4.00781C39.3672 4.07422 39.2773 4.17773 39.2109 4.31836C39.1445 4.45898 39.0957 4.64258 39.0645 4.86914C39.0332 5.0918 39.0176 5.35938 39.0176 5.67188V6.19336C39.0176 6.48633 39.043 6.73242 39.0938 6.93164C39.1445 7.12695 39.2188 7.28711 39.3164 7.41211C39.418 7.5332 39.541 7.62109 39.6855 7.67578C39.8301 7.72656 39.998 7.75195 40.1895 7.75195C40.4785 7.75195 40.7383 7.70117 40.9688 7.59961C41.2031 7.49414 41.4023 7.35156 41.5664 7.17188L42.2227 8.16797C42.1094 8.31641 41.9531 8.46484 41.7539 8.61328C41.5547 8.76172 41.3164 8.88281 41.0391 8.97656C40.7617 9.07031 40.4414 9.11719 40.0781 9.11719Z" fill="white"/>
</svg>
