<svg width="100" height="176" viewBox="0 0 100 176" fill="none" xmlns="http://www.w3.org/2000/svg">
<path d="M0.937317 171.043H33.8215L33.8215 116.105H0.937317L0.937317 171.043Z" fill="#B2B2B2"/>
<path d="M33.6913 171.043H66.5756V116.105H33.6913L33.6913 171.043Z" fill="#D1D1D1"/>
<path d="M36.6454 64.1547L40.6059 83.1186L28.2359 84.7113C28.2359 84.7113 27.1634 65.0041 28.2359 64.898C29.3083 64.8024 36.6454 64.1547 36.6454 64.1547Z" fill="#A8754B"/>
<path d="M25.0717 45.1058C25.0717 45.1058 37.4311 46.8472 39.6503 65.6518C39.6503 65.6518 35.711 69.8885 30.6887 68.5824L25.0717 45.1058Z" fill="#EBA417"/>
<path d="M19.7096 44.4581C19.7096 44.4581 7.66864 43.2689 3.43203 51.7528C-0.815208 60.2366 11.5655 69.0709 7.31825 88.5126L34.0121 87.1004V69.9521C34.0121 69.9521 38.8752 62.8593 31.9841 55.2567C31.9841 55.2567 31.57 43.7043 19.7096 44.4581Z" fill="#EBA417"/>
<path d="M59.4212 91.2627C59.4212 91.2627 68.0749 88.056 70.4003 96.4549C72.7256 104.843 82.3669 159.686 82.3669 159.686H74.6369L70.0924 137.887C70.0924 137.887 63.679 130.741 61.7147 115.567L34.7448 112.35L59.4212 91.2627Z" fill="#B5845B"/>
<path d="M41.7315 111.331C41.7315 111.331 46.3185 111.203 54.4626 108.613C62.6066 106.011 68.4147 108.761 65.2081 117.935C62.0014 127.099 45.7982 169.571 45.7982 169.571L39.661 167.734L44.9594 140.233C44.9594 140.233 46.2017 126.589 51.9567 118.594C51.9567 118.594 39.8521 119.199 35.711 118.562C31.5912 117.935 41.7315 111.331 41.7315 111.331Z" fill="#A8754B"/>
<path d="M7.31826 88.5126C7.31826 88.5126 -2.47161 100.819 9.30385 112.902C9.30385 112.902 15.3668 119.963 42.0925 118.859C42.0925 118.859 49.1004 95.202 64.0082 88.8417L33.1521 84.7113L7.31826 88.5126Z" fill="#0C2C40"/>
<path d="M20.3679 13.0392C20.3679 13.0392 23.5533 0.0745423 12.5211 0.000215724C4.35581 -0.0528747 1.92426 9.70512 11.9371 16.2352L20.3679 13.0392Z" fill="#190D08"/>
<path d="M11.5655 18.5925C11.5655 18.5925 9.56927 13.4958 15.2606 10.9156C20.9519 8.33542 22.7676 14.4408 22.7676 14.4408L11.5655 18.5925Z" fill="#61DAFB"/>
<path d="M33.1839 30.1875C33.1839 30.1875 41.4023 25.3244 32.515 15.5557C26.9617 9.45033 17.2355 9.7901 11.8203 15.8424C6.40508 21.8947 11.5124 32.5659 11.5124 32.5659L15.1969 26.4393L18.4248 21.6824L23.0436 19.8348L26.6644 20.0896L29.733 20.4825L32.207 21.5231L33.1839 30.1875Z" fill="#27160C"/>
<path d="M26.4712 34.117L17.2346 32.9306L15.3651 47.4859L24.6017 48.6723L26.4712 34.117Z" fill="#B5845B"/>
<path d="M16.2693 37.2591C16.2693 37.2591 17.2674 42.5575 21.5253 43.6299C22.8525 43.9591 24.2966 43.5768 25.1036 42.4832C25.3265 42.1859 25.4858 41.8461 25.5389 41.4638C25.7406 39.9348 21.7058 37.2591 21.7058 37.2591H16.2693Z" fill="#A8754B"/>
<path d="M22.7782 41.0285L22.3004 40.9648C17.0019 40.2852 13.2537 35.4327 13.9333 30.1343L14.4748 25.9296C15.1544 20.6311 20.0068 16.8829 25.3053 17.5625L25.7831 17.6262C31.0815 18.3058 34.8297 23.1582 34.1501 28.4567L33.6086 32.6614C32.9291 37.9599 28.0766 41.708 22.7782 41.0285Z" fill="#B5845B"/>
<path d="M14.9739 29.0831C14.9739 29.0831 21.6208 26.917 21.4509 19.4525C21.4509 19.4525 21.8757 13.8887 16.0569 19.0384C10.2382 24.1882 14.9739 29.0831 14.9739 29.0831Z" fill="#27160C"/>
<path d="M16.4392 31.1218C16.2056 32.9057 14.581 34.1692 12.7866 33.9356C11.0028 33.702 9.7392 32.0775 9.9728 30.2936C10.2064 28.5098 11.831 27.2462 13.6254 27.4798C15.4093 27.7028 16.6728 29.338 16.4392 31.1218Z" fill="#B5845B"/>
<path d="M18.5734 25.3456L18.2761 27.7028C17.5966 31.0263 16.195 30.0175 15.6853 28.5841L18.5734 25.3456Z" fill="#27160C"/>
<path d="M35.1695 24.1457C35.1695 24.1457 28.3845 29.2318 18.4354 21.693C11.5761 16.5007 21.95 14.632 21.95 14.632L31.623 16.6281L35.1695 24.1457Z" fill="#27160C"/>
<path d="M15.3774 47.4737C15.3774 47.4737 21.1855 57.8369 25.3053 54.6515C29.7543 51.2112 19.7096 44.4582 19.7096 44.4582L15.3774 47.4737Z" fill="#B5845B"/>
<path d="M17.947 68.5824C17.947 68.5824 21.5359 75.1975 23.9886 80.3898L50.1516 78.882C50.1516 78.882 55.3439 74.6347 59.4106 78.2237L55.3969 83.0443L22.6401 90.2964C21.3872 90.5725 20.0812 90.2115 19.1574 89.3408C16.2587 86.6013 9.95153 80.2199 6.89352 73.711L17.947 68.5824Z" fill="#B5845B"/>
<path d="M90.5641 58.3784H58.4125C57.3507 58.3784 56.4375 59.1217 56.2252 60.1517L50.1728 88.5551C49.8755 89.946 50.9373 91.2627 52.3602 91.2627H85.0533C86.1257 91.2627 87.0495 90.4982 87.2512 89.447L92.7726 61.0436C93.0275 59.6632 91.9656 58.3784 90.5641 58.3784Z" fill="#B2B2B2"/>
<path d="M92.4116 58.3784H60.26C59.1982 58.3784 58.2851 59.1217 58.0727 60.1517L52.0204 88.5551C51.7231 89.946 52.7849 91.2627 54.2077 91.2627H86.9008C87.9732 91.2627 88.897 90.4982 89.0987 89.447L94.6201 61.0436C94.875 59.6632 93.8238 58.3784 92.4116 58.3784Z" fill="#D1D1D1"/>
<path d="M51.0223 88.8417H29.0534C28.3845 88.8417 27.843 89.3833 27.843 90.0522C27.843 90.7212 28.3845 91.2627 29.0534 91.2627H51.447L51.0223 88.8417Z" fill="#B2B2B2"/>
<path d="M72.5027 74.0826C72.5027 76.0151 74.0741 77.5866 76.0066 77.5866C77.9391 77.5866 79.5106 76.0151 79.5106 74.0826C79.5106 72.1501 77.9391 70.5786 76.0066 70.5786C74.0741 70.5786 72.5027 72.1395 72.5027 74.0826Z" fill="white"/>
<path d="M6.89352 47.6223C6.45817 47.8134 -7.95057 54.8957 6.22458 76.8433C6.22458 76.8433 15.2818 76.9919 20.5271 70.2494C20.5378 70.2494 18.7964 42.3982 6.89352 47.6223Z" fill="#EBA417"/>
<path d="M37.9939 166.534C38.185 165.961 38.8115 165.749 39.2362 166.12C40.0644 166.853 41.551 167.755 43.7383 167.532C46.0212 167.309 46.8706 165.961 47.1998 164.995C47.3697 164.485 47.8581 164.23 48.2934 164.443L62.1182 171.387C62.957 171.811 63.6153 172.597 63.9339 173.574C64.2418 174.498 63.626 175.485 62.7553 175.464L38.8752 174.806C37.9302 174.785 37.2188 173.861 37.2931 172.788L37.686 167.522C37.6966 167.437 37.7072 167.352 37.7391 167.267L37.9939 166.534Z" fill="#61DAFB"/>
<path d="M72.8531 157.445C72.8956 156.84 73.4371 156.468 73.9361 156.723C74.9236 157.212 76.5906 157.689 78.6506 156.904C80.7848 156.086 81.2626 154.568 81.3263 153.548C81.3582 153.017 81.7617 152.635 82.2395 152.731L97.4021 155.821C98.3259 156.012 99.1647 156.596 99.7381 157.456C100.28 158.263 99.9398 159.378 99.101 159.579L75.8792 165.196C74.9661 165.419 74.0317 164.719 73.83 163.657L72.8318 158.475C72.8106 158.39 72.8106 158.305 72.8106 158.21L72.8531 157.445Z" fill="#61DAFB"/>
</svg>
