<svg width="86" height="72" viewBox="0 0 86 72" fill="none" xmlns="http://www.w3.org/2000/svg">
<path d="M71.4286 6.25V58.9286C71.4277 59.3748 71.594 59.8052 71.8947 60.1349C72.1953 60.4647 72.6085 60.67 73.0529 60.7103C73.4973 60.7506 73.9407 60.6231 74.2958 60.3528C74.6509 60.0825 74.8919 59.6891 74.9714 59.25L75 58.9286V10.7143H79.4643C81.0328 10.7143 82.544 11.3042 83.6978 12.3667C84.8517 13.4292 85.5638 14.8868 85.6929 16.45L85.7143 16.9643V59.8214C85.7145 62.7862 84.5802 65.6387 82.544 67.7937C80.5079 69.9487 77.7243 71.2429 74.7643 71.4107L74.1071 71.4286H11.6071C8.64237 71.4288 5.7899 70.2945 3.63489 68.2583C1.47988 66.2222 0.18571 63.4386 0.0178576 60.4786L0 59.8214V6.25C5.85878e-05 4.68146 0.589896 3.17029 1.65243 2.01646C2.71496 0.862628 4.1725 0.150497 5.73571 0.0214287L6.25 0H65.1786C66.7471 5.85878e-05 68.2583 0.589896 69.4121 1.65243C70.5659 2.71496 71.2781 4.1725 71.4071 5.73571L71.4286 6.25V58.9286V6.25ZM27.6679 32.1571H18.75C17.1815 32.1572 15.6703 32.747 14.5165 33.8096C13.3626 34.8721 12.6505 36.3296 12.5214 37.8929L12.5 38.4071V47.3214C12.5001 48.89 13.0899 50.4011 14.1524 51.555C15.215 52.7088 16.6725 53.4209 18.2357 53.55L18.75 53.5714H27.6679C29.237 53.5713 30.7486 52.981 31.9025 51.9177C33.0564 50.8544 33.7682 49.396 33.8964 47.8321L33.9143 47.3214V38.4071C33.9151 36.838 33.3257 35.3259 32.2631 34.1713C31.2004 33.0168 29.7424 32.3041 28.1786 32.175L27.6679 32.1571ZM56.25 48.2143H43.75L43.3857 48.2393C42.7446 48.3275 42.1571 48.6448 41.7318 49.1326C41.3065 49.6204 41.0722 50.2457 41.0722 50.8929C41.0722 51.54 41.3065 52.1653 41.7318 52.6531C42.1571 53.1409 42.7446 53.4582 43.3857 53.5464L43.75 53.5714H56.25L56.6143 53.5464C57.2554 53.4582 57.8429 53.1409 58.2682 52.6531C58.6935 52.1653 58.9277 51.54 58.9277 50.8929C58.9277 50.2457 58.6935 49.6204 58.2682 49.1326C57.8429 48.6448 57.2554 48.3275 56.6143 48.2393L56.25 48.2143ZM18.75 37.5143H27.6679C27.8685 37.5144 28.0633 37.5822 28.2208 37.7066C28.3782 37.831 28.4892 38.0048 28.5357 38.2L28.5607 38.4071V47.3214C28.5604 47.5226 28.4921 47.7177 28.367 47.8753C28.2419 48.0328 28.0673 48.1434 27.8714 48.1893L27.6679 48.2143H18.75C18.5488 48.214 18.3537 48.1457 18.1962 48.0206C18.0387 47.8955 17.928 47.7209 17.8821 47.525L17.8571 47.3214V38.4071C17.8567 38.2054 17.9246 38.0094 18.0497 37.8512C18.1749 37.6929 18.35 37.5817 18.5464 37.5357L18.75 37.5143H27.6679H18.75ZM56.25 32.1571H43.75L43.3857 32.1786C42.7419 32.2639 42.151 32.5802 41.723 33.0687C41.295 33.5571 41.059 34.1845 41.059 34.8339C41.059 35.4834 41.295 36.1107 41.723 36.5992C42.151 37.0876 42.7419 37.404 43.3857 37.4893L43.75 37.5143H56.25L56.6143 37.4893C57.2581 37.404 57.849 37.0876 58.277 36.5992C58.705 36.1107 58.941 35.4834 58.941 34.8339C58.941 34.1845 58.705 33.5571 58.277 33.0687C57.849 32.5802 57.2581 32.2639 56.6143 32.1786L56.25 32.1571ZM56.25 16.0607H15.1786L14.8143 16.0857C14.1732 16.1739 13.5857 16.4913 13.1604 16.9791C12.7351 17.4669 12.5008 18.0921 12.5008 18.7393C12.5008 19.3864 12.7351 20.0117 13.1604 20.4995C13.5857 20.9873 14.1732 21.3046 14.8143 21.3929L15.1786 21.4179H56.25L56.6143 21.3929C57.2554 21.3046 57.8429 20.9873 58.2682 20.4995C58.6935 20.0117 58.9277 19.3864 58.9277 18.7393C58.9277 18.0921 58.6935 17.4669 58.2682 16.9791C57.8429 16.4913 57.2554 16.1739 56.6143 16.0857L56.25 16.0607Z" fill="black"/>
</svg>
